<svg width="200" height="200" viewBox="0 0 200 200" fill="none" xmlns="http://www.w3.org/2000/svg">
<path d="M0 22C0 9.84974 9.84974 0 22 0H178C190.15 0 200 9.84974 200 22V178C200 190.15 190.15 200 178 200H22C9.84974 200 0 190.15 0 178V22Z" fill="white"/>
<path d="M24.983 147V132.818L58.1193 102.136C60.9375 99.4091 63.3011 96.9545 65.2102 94.7727C67.1496 92.5909 68.6193 90.4545 69.6193 88.3636C70.6193 86.2424 71.1193 83.9545 71.1193 81.5C71.1193 78.7727 70.4981 76.4242 69.2557 74.4545C68.0133 72.4545 66.3163 70.9242 64.1648 69.8636C62.0133 68.7727 59.5739 68.2273 56.8466 68.2273C53.9981 68.2273 51.5133 68.803 49.392 69.9545C47.2708 71.1061 45.6345 72.7576 44.483 74.9091C43.3314 77.0606 42.7557 79.6212 42.7557 82.5909H24.0739C24.0739 76.5 25.4527 71.2121 28.2102 66.7273C30.9678 62.2424 34.8314 58.7727 39.8011 56.3182C44.7708 53.8636 50.4981 52.6364 56.983 52.6364C63.6496 52.6364 69.4527 53.8182 74.392 56.1818C79.3617 58.5151 83.2254 61.7576 85.983 65.9091C88.7405 70.0606 90.1193 74.8182 90.1193 80.1818C90.1193 83.697 89.4224 87.1667 88.0284 90.5909C86.6648 94.0152 84.2254 97.8182 80.7102 102C77.1951 106.152 72.2405 111.136 65.8466 116.955L52.2557 130.273V130.909H91.3466V147H24.983ZM139.29 52.6364C144.078 52.6364 148.684 53.4394 153.108 55.0454C157.563 56.6515 161.532 59.2121 165.017 62.7273C168.532 66.2424 171.305 70.9091 173.335 76.7273C175.396 82.5151 176.441 89.6212 176.472 98.0455C176.472 105.955 175.578 113.015 173.79 119.227C172.032 125.409 169.502 130.667 166.199 135C162.896 139.333 158.911 142.636 154.244 144.909C149.578 147.152 144.366 148.273 138.608 148.273C132.396 148.273 126.911 147.076 122.153 144.682C117.396 142.258 113.563 138.97 110.653 134.818C107.775 130.636 106.032 125.939 105.426 120.727H124.835C125.593 124.121 127.184 126.758 129.608 128.636C132.032 130.485 135.032 131.409 138.608 131.409C144.669 131.409 149.275 128.773 152.426 123.5C155.578 118.197 157.169 110.939 157.199 101.727H156.562C155.169 104.455 153.29 106.803 150.926 108.773C148.563 110.712 145.85 112.212 142.79 113.273C139.759 114.333 136.532 114.864 133.108 114.864C127.623 114.864 122.729 113.576 118.426 111C114.123 108.424 110.729 104.879 108.244 100.364C105.759 95.8485 104.517 90.697 104.517 84.9091C104.487 78.6667 105.926 73.1061 108.835 68.2273C111.744 63.3485 115.805 59.5303 121.017 56.7727C126.259 53.9848 132.35 52.6061 139.29 52.6364ZM139.426 68.0909C136.366 68.0909 133.638 68.8182 131.244 70.2727C128.881 71.7273 127.002 73.6818 125.608 76.1364C124.244 78.5909 123.578 81.3333 123.608 84.3636C123.608 87.4242 124.275 90.1818 125.608 92.6364C126.972 95.0606 128.82 97 131.153 98.4545C133.517 99.8788 136.214 100.591 139.244 100.591C141.517 100.591 143.623 100.167 145.562 99.3182C147.502 98.4697 149.184 97.303 150.608 95.8182C152.063 94.303 153.199 92.5606 154.017 90.5909C154.835 88.6212 155.244 86.5303 155.244 84.3182C155.214 81.3788 154.517 78.6818 153.153 76.2273C151.79 73.7727 149.911 71.803 147.517 70.3182C145.123 68.8333 142.426 68.0909 139.426 68.0909Z" fill="#252525"/>
</svg>
